<svg width="25" height="24" viewBox="0 0 25 24" fill="none" xmlns="http://www.w3.org/2000/svg">
<path d="M12 13.8H4.5L11.5982 4.2174C11.9705 3.71477 12.1567 3.46345 12.3284 3.5201C12.5 3.57675 12.5 3.88951 12.5 4.51502V9.7C12.5 9.9357 12.5 10.0536 12.5732 10.1268C12.6464 10.2 12.7643 10.2 13 10.2H20.5L13.4018 19.7826C13.0295 20.2852 12.8433 20.5365 12.6716 20.4799C12.5 20.4232 12.5 20.1105 12.5 19.485V14.3C12.5 14.0643 12.5 13.9464 12.4268 13.8732C12.3536 13.8 12.2357 13.8 12 13.8Z" fill="black"/>
</svg>
