<svg width="33" height="32" viewBox="0 0 33 32" fill="none" xmlns="http://www.w3.org/2000/svg">
<path d="M14.8307 20.1404C16.2632 20.5187 19.3942 21.3457 19.892 19.3454C20.402 17.3003 17.3661 16.619 15.8843 16.2865C15.7186 16.2493 15.5723 16.2164 15.4526 16.1866L14.4884 20.0515C14.5867 20.0759 14.7018 20.1063 14.8307 20.1404Z" fill="white"/>
<path d="M16.1815 14.4927C17.3759 14.8114 19.9813 15.5067 20.435 13.6887C20.8984 11.8293 18.3665 11.2687 17.1298 10.9949C16.9907 10.9641 16.868 10.937 16.7678 10.912L15.8937 14.4173C15.9762 14.4379 16.073 14.4637 16.1815 14.4927Z" fill="white"/>
<path fill-rule="evenodd" clip-rule="evenodd" d="M12.9766 31.521C21.5492 33.6584 30.2307 28.442 32.3676 19.8705C34.5047 11.2986 29.2884 2.61569 20.7165 0.478775C12.1466 -1.65814 3.46508 3.5587 1.32911 12.1312C-0.808748 20.702 4.40771 29.3841 12.9766 31.521ZM20.3842 9.68297C22.6009 10.4465 24.222 11.5911 23.9035 13.7203C23.6731 15.279 22.8096 16.0337 21.6624 16.2983C23.2375 17.1184 24.039 18.3759 23.2755 20.5562C22.3279 23.2642 20.0768 23.4926 17.0829 22.926L16.3564 25.8379L14.6006 25.4004L15.3177 22.5276C14.8625 22.4145 14.3976 22.2946 13.9185 22.1645L13.199 25.0509L11.4453 24.6134L12.1718 21.696C12.0031 21.6529 11.8333 21.6086 11.6622 21.5641C11.4175 21.5003 11.1702 21.4358 10.92 21.3731L8.63523 20.8035L9.50692 18.7937C9.50692 18.7937 10.8006 19.1377 10.783 19.1122C11.2801 19.2353 11.5006 18.9111 11.5875 18.6951L12.7357 14.0921C12.7819 14.1032 12.827 14.1144 12.8703 14.1253C12.8876 14.1296 12.9046 14.1339 12.9213 14.138C12.8512 14.1099 12.7877 14.0919 12.7387 14.0794L13.5579 10.7936C13.5792 10.4205 13.4506 9.94989 12.7397 9.77244C12.7671 9.75406 11.4645 9.45547 11.4645 9.45547L11.9316 7.58024L14.3528 8.18485L14.3507 8.19392C14.7147 8.28448 15.0899 8.37043 15.4718 8.4574L16.1913 5.57408L17.946 6.01157L17.2408 8.83842C17.712 8.94596 18.186 9.05443 18.6475 9.16955L19.3476 6.36123L21.1033 6.79872L20.3842 9.68297Z" fill="white"/>
</svg>
