<svg width="24" height="24" viewBox="0 0 24 24" fill="none" xmlns="http://www.w3.org/2000/svg">
<path d="M12 22V13.5556M12 22L4.89864 17.3151C4.45883 17.0249 4.23893 16.8799 4.11947 16.6579C4 16.436 4 16.1725 4 15.6456V8.27778M12 22L19.1014 17.3151C19.5412 17.0249 19.7611 16.8799 19.8805 16.6579C20 16.436 20 16.1725 20 15.6456V8.27778M12 13.5556L4 8.27778M12 13.5556L20 8.27778M4 8.27778L10.8986 3.72659C11.4328 3.37421 11.6999 3.19801 12 3.19801C12.3001 3.19801 12.5672 3.37421 13.1014 3.72659L20 8.27778" stroke="#FB683D" stroke-width="2" stroke-linejoin="round"/>
</svg>
