<svg width="405" height="32" viewBox="0 0 405 32" fill="none" xmlns="http://www.w3.org/2000/svg">
<g opacity="0.2">
<path d="M13.9807 20.1404C15.4133 20.5187 18.5443 21.3457 19.0421 19.3454C19.5521 17.3003 16.5162 16.619 15.0344 16.2865C14.8686 16.2493 14.7224 16.2164 14.6026 16.1866L13.6385 20.0515C13.7367 20.0759 13.8519 20.1063 13.9807 20.1404Z" fill="white"/>
<path d="M15.3316 14.4927C16.5259 14.8114 19.1314 15.5067 19.5851 13.6887C20.0484 11.8293 17.5166 11.2687 16.2799 10.9949C16.1408 10.9641 16.0181 10.937 15.9178 10.912L15.0437 14.4173C15.1263 14.4379 15.2231 14.4637 15.3316 14.4927Z" fill="white"/>
<path fill-rule="evenodd" clip-rule="evenodd" d="M12.1267 31.521C20.6992 33.6584 29.3808 28.442 31.5176 19.8705C33.6548 11.2986 28.4385 2.61569 19.8666 0.478775C11.2967 -1.65814 2.61515 3.5587 0.479176 12.1312C-1.65868 20.702 3.55778 29.3841 12.1267 31.521ZM19.5343 9.68297C21.751 10.4465 23.372 11.5911 23.0536 13.7203C22.8232 15.279 21.9597 16.0337 20.8125 16.2983C22.3876 17.1184 23.1891 18.3759 22.4256 20.5562C21.478 23.2642 19.2268 23.4926 16.2329 22.926L15.5065 25.8379L13.7507 25.4004L14.4677 22.5276C14.0126 22.4145 13.5476 22.2946 13.0685 22.1645L12.349 25.0509L10.5953 24.6134L11.3219 21.696C11.1531 21.6529 10.9833 21.6086 10.8123 21.5641C10.5676 21.5003 10.3203 21.4358 10.0701 21.3731L7.7853 20.8035L8.65699 18.7937C8.65699 18.7937 9.95068 19.1377 9.93309 19.1122C10.4302 19.2353 10.6507 18.9111 10.7376 18.6951L11.8857 14.0921C11.932 14.1032 11.977 14.1144 12.0204 14.1253C12.0376 14.1296 12.0546 14.1339 12.0713 14.138C12.0013 14.1099 11.9378 14.0919 11.8888 14.0794L12.7079 10.7936C12.7293 10.4205 12.6007 9.94989 11.8897 9.77244C11.9172 9.75406 10.6146 9.45547 10.6146 9.45547L11.0816 7.58024L13.5028 8.18485L13.5008 8.19392C13.8648 8.28448 14.2399 8.37043 14.6219 8.4574L15.3414 5.57408L17.096 6.01157L16.3909 8.83842C16.862 8.94596 17.336 9.05443 17.7976 9.16955L18.4976 6.36123L20.2534 6.79872L19.5343 9.68297Z" fill="white"/>
<path d="M76.824 15.6782V15.6785C81.3937 15.475 84.8062 14.6763 84.8062 13.7253C84.8062 12.7742 81.3954 11.9759 76.824 11.7723V14.8866C76.6928 14.8987 75.9777 14.9579 74.5552 14.9579C73.3711 14.9579 72.5131 14.9072 72.213 14.8866V11.7723C67.6336 11.9755 64.2141 12.772 64.2141 13.7264C64.2141 14.6807 67.6328 15.4783 72.2143 15.6813V15.6774C72.5089 15.6928 73.3464 15.7266 74.5366 15.7266C76.0252 15.7266 76.6939 15.6864 76.824 15.6782Z" fill="white"/>
<path fill-rule="evenodd" clip-rule="evenodd" d="M62.7202 0H85.8443L92.568 14.3722L74.2822 32L55.9965 14.3722L62.7202 0ZM76.8218 8.65975V11.4491L76.824 11.4498C81.9988 11.6886 85.8891 12.7144 85.8891 13.9434C85.8891 15.1724 81.9988 16.1984 76.824 16.4372V25.3731H72.2108V16.4389C67.0283 16.1984 63.128 15.1715 63.128 13.9416C63.128 12.7117 67.0265 11.6846 72.2108 11.4469V8.65975H65.8319V4.40997H83.2002V8.65975H76.8218Z" fill="white"/>
<path fill-rule="evenodd" clip-rule="evenodd" d="M129.551 16C129.551 7.2 136.703 0 145.604 0C154.431 0 161.658 7.2 161.658 16C161.658 24.8 154.429 32 145.602 32C136.774 32 129.551 24.8725 129.551 16ZM139.622 16C139.622 19.2725 142.321 21.9637 145.604 21.9637C148.887 21.9637 151.513 19.2725 151.587 16C151.587 12.7275 148.887 10.0363 145.604 10.0363C142.321 10.0363 139.622 12.7275 139.622 16Z" fill="white"/>
<path d="M129.551 16L129.551 27.9211H123.864L116.568 4.64854H129.551L129.551 16Z" fill="white"/>
<path d="M211.078 21.5104C211.16 22.1309 210.974 22.3997 210.767 22.3997C210.56 22.3997 210.271 22.1515 209.961 21.6552C209.65 21.1588 209.526 20.6003 209.692 20.3108C209.795 20.1246 210.002 20.0419 210.292 20.1453C210.809 20.3314 211.015 21.1381 211.078 21.5104ZM208.141 22.8754C208.782 23.4132 208.968 24.0544 208.637 24.4887C208.451 24.7369 208.141 24.861 207.789 24.861C207.437 24.861 207.065 24.7369 206.817 24.5094C206.238 24.013 206.072 23.1857 206.445 22.7307C206.589 22.5445 206.838 22.4411 207.106 22.4411C207.458 22.4618 207.83 22.6066 208.141 22.8754ZM207.086 28.0462C209.816 28.0462 212.774 28.977 216.041 31.8933C216.372 32.1828 216.807 31.8312 216.517 31.4589C213.291 27.3844 210.312 26.6191 207.355 25.9572C203.714 25.1506 201.853 23.103 200.55 20.8692C200.281 20.4142 200.178 20.4969 200.157 21.076C200.136 21.7792 200.178 22.71 200.343 23.62C200.198 23.62 200.053 23.62 199.909 23.62C194.717 23.62 190.498 19.4007 190.498 14.2093C190.498 9.01781 194.717 4.79847 199.909 4.79847C205.1 4.79847 209.319 9.01781 209.319 14.2093C209.319 14.5815 209.299 14.9538 209.257 15.3055C208.575 15.1814 207.21 15.1607 206.258 15.2434C205.907 15.2641 205.948 15.4502 206.217 15.4916C209.319 16.05 211.471 17.9736 211.946 21.4897C211.967 21.5724 212.07 21.5931 212.112 21.5311C213.394 19.4007 214.118 16.8981 214.118 14.2299C214.118 6.37038 207.748 0 199.888 0C192.028 0 185.658 6.37038 185.658 14.2299C185.658 22.0895 192.028 28.4599 199.888 28.4599C201.977 28.4599 204.045 28.0462 207.086 28.0462Z" fill="white"/>
<path fill-rule="evenodd" clip-rule="evenodd" d="M249.66 27.8799C252.891 30.5044 256.623 32 260.603 32C266.522 32 271.895 28.6826 275.882 23.2797C274.198 20.999 272.268 19.0887 270.153 17.6445L266.756 19.3404C267.486 20.4762 267.911 21.8284 267.911 23.2797C267.911 27.3111 264.64 30.5788 260.603 30.5788C257.466 30.5788 254.792 28.6046 253.756 25.8332L249.66 27.8782V27.8799ZM258.088 23.6713C258.17 24.2011 258.418 24.6938 258.802 25.0784C259.279 25.5549 259.928 25.8226 260.603 25.8208C262.008 25.8208 263.148 24.6831 263.148 23.2797C263.148 22.5904 262.873 21.9648 262.426 21.5059L258.09 23.6713H258.088Z" fill="white"/>
<path d="M250.585 23.2228L275.346 11.3199L269.904 0L267.094 10.0033L263.716 2.97528L260.904 12.9786L257.527 5.95056L254.714 15.9539L251.337 8.92585L248.524 18.9292L245.147 11.9012L240.612 28.018L250.585 23.2246V23.2228Z" fill="white"/>
<path d="M375.788 1.31076C373.361 0.426524 370.796 -0.017192 368.213 0.00050946C359.861 0.00050946 353.962 4.20794 353.921 10.2477C353.868 14.6848 358.112 17.1852 361.323 18.6677C364.617 20.192 365.718 21.1525 365.708 22.515C365.687 24.5874 363.077 25.527 360.649 25.527C357.314 25.527 355.492 25.0624 352.689 23.8983L351.65 23.4129L350.465 30.3661C352.495 31.2118 356.155 31.9374 359.934 32C368.814 32 374.618 27.8187 374.686 21.3927C374.759 17.8482 372.462 15.1702 367.629 12.9569C364.69 11.5214 362.868 10.5609 362.868 9.10444C362.868 7.81507 364.429 6.43695 367.691 6.43695C369.863 6.38441 372.021 6.7918 374.023 7.63236L374.806 7.98211L375.991 1.26378L375.788 1.31076ZM397.462 0.564284H390.937C388.906 0.564284 387.376 1.12284 386.489 3.13782L373.94 31.5667H382.819L384.594 26.9051L395.431 26.9156C395.687 28.0066 396.47 31.5667 396.47 31.5667H404.3L397.462 0.564284ZM341.909 0.303276H350.371L345.078 31.3214H336.626L341.909 0.292836V0.303276ZM320.428 17.3993L321.305 21.7059L329.574 0.564284H338.537L325.22 31.525H316.278L308.97 5.30939C308.851 4.87712 308.574 4.50587 308.192 4.27059C305.558 2.90989 302.767 1.87729 299.882 1.19592L299.996 0.5434H313.616C315.464 0.616482 316.951 1.19592 317.447 3.16913L320.423 17.4149L320.428 17.3993ZM387.021 20.5627L390.394 11.8868C390.352 11.9807 391.088 10.0963 391.516 8.93218L392.095 11.6101L394.053 20.5574H387.016L387.021 20.5627Z" fill="white"/>
</g>
</svg>
