<svg width="86" height="24" viewBox="0 0 86 24" fill="none" xmlns="http://www.w3.org/2000/svg">
<path fill-rule="evenodd" clip-rule="evenodd" d="M16.2712 5.28814V0H12.2034V9.35593H21.5593V5.28814H16.2712ZM5.69492 9.35593C4.79628 9.35593 4.0678 10.0844 4.0678 10.9831C4.0678 11.8817 4.79628 12.6102 5.69492 12.6102H13.0169C16.1622 12.6102 18.7119 15.1599 18.7119 18.3051C18.7119 21.4503 16.1622 24 13.0169 24H9.35593V19.9322H13.0169C13.9156 19.9322 14.6441 19.2037 14.6441 18.3051C14.6441 17.4065 13.9156 16.678 13.0169 16.678H5.69492C2.5497 16.678 0 14.1283 0 10.9831C0 7.83784 2.5497 5.28814 5.69492 5.28814H9.35593V9.35593H5.69492Z" fill="white"/>
<path d="M35.6957 19.2131C34.5783 19.2131 33.6171 18.9763 32.8122 18.5028C32.012 18.0246 31.3964 17.3617 30.9656 16.5142C30.5394 15.6667 30.3264 14.6913 30.3264 13.5881C30.3264 12.4706 30.5418 11.4905 30.9727 10.6477C31.4083 9.80019 32.0262 9.13968 32.8264 8.66619C33.6266 8.18797 34.5783 7.94886 35.6815 7.94886C36.6332 7.94886 37.4665 8.12169 38.1815 8.46733C38.8964 8.81297 39.4623 9.2983 39.8789 9.9233C40.2956 10.5483 40.5252 11.2822 40.5678 12.125H37.7127C37.6322 11.5805 37.4192 11.1425 37.0735 10.8111C36.7326 10.4749 36.2852 10.3068 35.7312 10.3068C35.2625 10.3068 34.8529 10.4347 34.5025 10.6903C34.1569 10.9413 33.887 11.3082 33.6928 11.7912C33.4987 12.2741 33.4017 12.8589 33.4017 13.5455C33.4017 14.2415 33.4964 14.8333 33.6857 15.321C33.8799 15.8087 34.1521 16.1804 34.5025 16.4361C34.8529 16.6918 35.2625 16.8196 35.7312 16.8196C36.0768 16.8196 36.387 16.7486 36.6616 16.6065C36.941 16.4645 37.1706 16.2585 37.3505 15.9886C37.5352 15.714 37.6559 15.3849 37.7127 15.0014H40.5678C40.5205 15.8348 40.2932 16.5687 39.886 17.2031C39.4836 17.8329 38.9272 18.3253 38.217 18.6804C37.5068 19.0355 36.6663 19.2131 35.6957 19.2131ZM42.505 4.45455H45.5306V15.733C45.5353 16.0786 45.5968 16.3295 45.7152 16.4858C45.8383 16.6373 46.0467 16.7131 46.3402 16.7131C46.4917 16.7083 46.6101 16.6989 46.6953 16.6847C46.7806 16.6705 46.8516 16.6515 46.9084 16.6278L47.3914 18.8295C47.2351 18.8769 47.0433 18.9266 46.8161 18.9787C46.5935 19.026 46.2929 19.0568 45.9141 19.071C44.754 19.1136 43.897 18.8958 43.3431 18.4176C42.7891 17.9347 42.5097 17.1747 42.505 16.1378V4.45455ZM53.4496 19.2131C52.3464 19.2131 51.3923 18.9787 50.5874 18.5099C49.7872 18.0365 49.1693 17.3783 48.7337 16.5355C48.2981 15.688 48.0803 14.7055 48.0803 13.5881C48.0803 12.4612 48.2981 11.4763 48.7337 10.6335C49.1693 9.78598 49.7872 9.12784 50.5874 8.65909C51.3923 8.18561 52.3464 7.94886 53.4496 7.94886C54.5528 7.94886 55.5045 8.18561 56.3047 8.65909C57.1096 9.12784 57.7299 9.78598 58.1655 10.6335C58.6011 11.4763 58.8189 12.4612 58.8189 13.5881C58.8189 14.7055 58.6011 15.688 58.1655 16.5355C57.7299 17.3783 57.1096 18.0365 56.3047 18.5099C55.5045 18.9787 54.5528 19.2131 53.4496 19.2131ZM53.4638 16.8693C53.9657 16.8693 54.3847 16.7273 54.7209 16.4432C55.0571 16.1544 55.3104 15.7614 55.4808 15.2642C55.656 14.767 55.7436 14.2012 55.7436 13.5668C55.7436 12.9323 55.656 12.3665 55.4808 11.8693C55.3104 11.3722 55.0571 10.9792 54.7209 10.6903C54.3847 10.4015 53.9657 10.2571 53.4638 10.2571C52.9572 10.2571 52.531 10.4015 52.1854 10.6903C51.8445 10.9792 51.5864 11.3722 51.4112 11.8693C51.2408 12.3665 51.1556 12.9323 51.1556 13.5668C51.1556 14.2012 51.2408 14.767 51.4112 15.2642C51.5864 15.7614 51.8445 16.1544 52.1854 16.4432C52.531 16.7273 52.9572 16.8693 53.4638 16.8693ZM67.782 14.3551V8.09091H70.8076V19H67.9027V17.0185H67.7891C67.5429 17.6577 67.1333 18.1714 66.5604 18.5597C65.9922 18.9479 65.2986 19.142 64.4794 19.142C63.7503 19.142 63.1087 18.9763 62.5547 18.6449C62.0007 18.3134 61.5675 17.8423 61.255 17.2315C60.9472 16.6207 60.791 15.8892 60.7862 15.0369V8.09091H63.8118V14.4972C63.8165 15.1411 63.9894 15.6501 64.3303 16.0241C64.6712 16.3982 65.1281 16.5852 65.701 16.5852C66.0656 16.5852 66.4065 16.5024 66.7237 16.3366C67.041 16.1662 67.2967 15.9152 67.4908 15.5838C67.6897 15.2524 67.7867 14.8428 67.782 14.3551ZM77.2475 19.1776C76.4189 19.1776 75.6685 18.9645 74.9961 18.5384C74.3285 18.1075 73.7982 17.4754 73.4052 16.642C73.0169 15.804 72.8228 14.7765 72.8228 13.5597C72.8228 12.3097 73.0241 11.2704 73.4265 10.4418C73.829 9.60843 74.364 8.9858 75.0316 8.57386C75.704 8.1572 76.4402 7.94886 77.2404 7.94886C77.8512 7.94886 78.3602 8.05303 78.7674 8.26136C79.1794 8.46496 79.5108 8.72064 79.7617 9.02841C80.0174 9.33144 80.2116 9.62973 80.3441 9.9233H80.4365V4.45455H83.4549V19H80.472V17.2528H80.3441C80.2021 17.5559 80.0009 17.8565 79.7404 18.1548C79.4848 18.4484 79.1509 18.6922 78.739 18.8864C78.3318 19.0805 77.8347 19.1776 77.2475 19.1776ZM78.2063 16.7699C78.694 16.7699 79.106 16.6373 79.4421 16.3722C79.783 16.1023 80.0435 15.7259 80.2234 15.2429C80.408 14.7599 80.5004 14.1941 80.5004 13.5455C80.5004 12.8968 80.4104 12.3333 80.2305 11.8551C80.0506 11.3769 79.7902 11.0076 79.4492 10.7472C79.1083 10.4867 78.694 10.3565 78.2063 10.3565C77.7092 10.3565 77.2902 10.4915 76.9492 10.7614C76.6083 11.0312 76.3503 11.4053 76.1751 11.8835C75.9999 12.3617 75.9123 12.9157 75.9123 13.5455C75.9123 14.1799 75.9999 14.741 76.1751 15.2287C76.355 15.7116 76.6131 16.0904 76.9492 16.3651C77.2902 16.6349 77.7092 16.7699 78.2063 16.7699Z" fill="white"/>
</svg>
