<svg width="22" height="24" viewBox="0 0 22 24" fill="none" xmlns="http://www.w3.org/2000/svg">
<path fill-rule="evenodd" clip-rule="evenodd" d="M16.2712 5.28814V0H12.2034V9.35593H21.5593V5.28814H16.2712ZM5.69492 9.35593C4.79628 9.35593 4.0678 10.0844 4.0678 10.9831C4.0678 11.8817 4.79628 12.6102 5.69492 12.6102H13.0169C16.1622 12.6102 18.7119 15.1599 18.7119 18.3051C18.7119 21.4503 16.1622 24 13.0169 24H9.35593V19.9322H13.0169C13.9156 19.9322 14.6441 19.2037 14.6441 18.3051C14.6441 17.4065 13.9156 16.678 13.0169 16.678H5.69492C2.5497 16.678 0 14.1283 0 10.9831C0 7.83784 2.5497 5.28814 5.69492 5.28814H9.35593V9.35593H5.69492Z" fill="white"/>
</svg>
