<svg width="32" height="32" viewBox="0 0 32 32" fill="none" xmlns="http://www.w3.org/2000/svg">
<path d="M25.9275 21.5104C26.0102 22.1309 25.8241 22.3997 25.6172 22.3997C25.4104 22.3997 25.1209 22.1515 24.8106 21.6552C24.5004 21.1588 24.3763 20.6003 24.5417 20.3108C24.6451 20.1246 24.852 20.0419 25.1415 20.1453C25.6586 20.3314 25.8654 21.1381 25.9275 21.5104ZM22.9905 22.8755C23.6317 23.4132 23.8178 24.0544 23.4869 24.4887C23.3007 24.7369 22.9905 24.861 22.6389 24.861C22.2873 24.861 21.915 24.7369 21.6668 24.5094C21.0877 24.013 20.9222 23.1857 21.2945 22.7307C21.4393 22.5445 21.6875 22.4411 21.9563 22.4411C22.308 22.4618 22.6803 22.6066 22.9905 22.8755ZM21.9357 28.0462C24.6658 28.0462 27.6235 28.977 30.8914 31.8933C31.2223 32.1828 31.6567 31.8312 31.3671 31.4589C28.1406 27.3844 25.1622 26.6191 22.2045 25.9572C18.5643 25.1506 16.7029 23.103 15.3998 20.8692C15.1309 20.4142 15.0275 20.4969 15.0068 21.076C14.9862 21.7792 15.0275 22.71 15.193 23.62C15.0482 23.62 14.9034 23.62 14.7586 23.62C9.5672 23.62 5.34786 19.4007 5.34786 14.2093C5.34786 9.01781 9.5672 4.79847 14.7586 4.79847C19.9501 4.79847 24.1694 9.01781 24.1694 14.2093C24.1694 14.5815 24.1488 14.9538 24.1074 15.3055C23.4248 15.1814 22.0598 15.1607 21.1083 15.2434C20.7567 15.2641 20.7981 15.4502 21.067 15.4916C24.1694 16.05 26.3205 17.9736 26.7962 21.4897C26.8169 21.5724 26.9203 21.5931 26.9616 21.5311C28.244 19.4007 28.9679 16.8981 28.9679 14.2299C28.9679 6.37038 22.5975 0 14.738 0C6.87841 0 0.508026 6.37038 0.508026 14.2299C0.508026 22.0895 6.87841 28.4599 14.738 28.4599C16.827 28.4599 18.8953 28.0462 21.9357 28.0462Z" fill="white"/>
</svg>
