<svg width="24" height="24" viewBox="0 0 24 24" fill="none" xmlns="http://www.w3.org/2000/svg">
<g clip-path="url(#clip0_31_544)">
<path fill-rule="evenodd" clip-rule="evenodd" d="M12 24C18.6274 24 24 18.6274 24 12C24 5.37258 18.6274 0 12 0C5.37258 0 0 5.37258 0 12C0 18.6274 5.37258 24 12 24ZM10.9349 7.73279C10.5302 7.35699 10.5068 6.72426 10.8826 6.31955C11.2584 5.91484 11.8911 5.8914 12.2958 6.26721L17.6805 11.2672L18.4696 12L17.6805 12.7328L12.2958 17.7328C11.8911 18.1086 11.2584 18.0852 10.8826 17.6805C10.5068 17.2757 10.5302 16.643 10.9349 16.2672L14.4535 13H7C6.44771 13 6 12.5523 6 12C6 11.4477 6.44771 11 7 11H14.4535L10.9349 7.73279Z" fill="white"/>
</g>
<defs>
<clipPath id="clip0_31_544">
<rect width="24" height="24" fill="white"/>
</clipPath>
</defs>
</svg>
