<svg width="25" height="24" viewBox="0 0 25 24" fill="none" xmlns="http://www.w3.org/2000/svg">
<path d="M5.34605 10.9487L9.60263 12.3675L9.60264 12.3675C10.5337 12.6779 10.9992 12.8331 11.3331 13.1669C11.6669 13.5008 11.8221 13.9663 12.1325 14.8973L12.1325 14.8973L13.5513 19.1539L13.5513 19.1539C13.9435 20.3305 14.1396 20.9188 14.5 20.9188C14.8604 20.9188 15.0565 20.3305 15.4487 19.1539L19.8675 5.89735C20.1435 5.06946 20.2815 4.65551 20.063 4.437C19.8445 4.21849 19.4305 4.35647 18.6026 4.63244L5.34605 9.0513C4.16944 9.4435 3.58114 9.63961 3.58114 9.99998C3.58114 10.3604 4.16944 10.5565 5.34604 10.9487L5.34605 10.9487Z" fill="white" fill-opacity="0.4"/>
</svg>
