<svg width="38" height="32" viewBox="0 0 38 32" fill="none" xmlns="http://www.w3.org/2000/svg">
<path d="M21.6739 15.6782V15.6785C26.2437 15.475 29.6562 14.6763 29.6562 13.7253C29.6562 12.7742 26.2453 11.9759 21.6739 11.7723V14.8866C21.5428 14.8987 20.8276 14.9579 19.4052 14.9579C18.221 14.9579 17.363 14.9072 17.063 14.8866V11.7723C12.4835 11.9755 9.06407 12.772 9.06407 13.7264C9.06407 14.6807 12.4828 15.4783 17.0642 15.6813V15.6774C17.3588 15.6928 18.1963 15.7266 19.3865 15.7266C20.8752 15.7266 21.5439 15.6864 21.6739 15.6782Z" fill="white"/>
<path fill-rule="evenodd" clip-rule="evenodd" d="M7.57012 0H30.6942L37.4179 14.3722L19.1322 32L0.846466 14.3722L7.57012 0ZM21.6717 8.65975V11.4491L21.6739 11.4498C26.8488 11.6886 30.739 12.7144 30.739 13.9434C30.739 15.1724 26.8488 16.1984 21.6739 16.4372V25.3731H17.0608V16.4389C11.8782 16.1984 7.9779 15.1715 7.9779 13.9416C7.9779 12.7117 11.8764 11.6846 17.0608 11.4469V8.65975H10.6818V4.40997H28.0501V8.65975H21.6717Z" fill="white"/>
</svg>
