<svg width="106" height="32" viewBox="0 0 106 32" fill="none" xmlns="http://www.w3.org/2000/svg">
<path d="M76.6376 1.31076C74.211 0.426524 71.6459 -0.017192 69.0632 0.00050946C60.711 0.00050946 54.8122 4.20794 54.7705 10.2477C54.7183 14.6848 58.9622 17.1852 62.1726 18.6677C65.4665 20.192 66.568 21.1525 66.5575 22.515C66.5367 24.5874 63.9266 25.527 61.4992 25.527C58.1635 25.527 56.3417 25.0624 53.5385 23.8983L52.4997 23.4129L51.3147 30.3661C53.3454 31.2118 57.0047 31.9374 60.7841 32C69.6635 32 75.4683 27.8187 75.5362 21.3927C75.6093 17.8482 73.3124 15.1702 68.4786 12.9569C65.5396 11.5214 63.7178 10.5609 63.7178 9.10444C63.7178 7.81506 65.2786 6.43695 68.5412 6.43695C70.7126 6.38441 72.8705 6.7918 74.8732 7.63236L75.6563 7.98211L76.8412 1.26378L76.6376 1.31076ZM98.3117 0.564284H91.7865C89.7559 0.564284 88.2264 1.12284 87.339 3.13782L74.7897 31.5667H83.6692L85.444 26.9051L96.2811 26.9156C96.5368 28.0066 97.3199 31.5667 97.3199 31.5667H105.15L98.3117 0.564284ZM42.7589 0.303276H51.2208L45.9275 31.3214H37.4761L42.7589 0.292836V0.303276ZM21.278 17.3993L22.155 21.7059L30.4237 0.564284H39.3867L26.0701 31.525H17.128L9.81978 5.30939C9.70141 4.87712 9.42344 4.50587 9.04198 4.27059C6.4079 2.90989 3.61692 1.87729 0.731506 1.19592L0.846349 0.5434H14.4657C16.3136 0.616482 17.8014 1.19592 18.2973 3.16913L21.2728 17.4149L21.278 17.3993ZM87.8714 20.5627L91.2436 11.8868C91.2019 11.9807 91.9379 10.0963 92.366 8.93218L92.9454 11.6101L94.9029 20.5574H87.8662L87.8714 20.5627Z" fill="white"/>
</svg>
