<svg width="46" height="32" viewBox="0 0 46 32" fill="none" xmlns="http://www.w3.org/2000/svg">
<path fill-rule="evenodd" clip-rule="evenodd" d="M13.4014 16C13.4014 7.2 20.5534 0 29.4536 0C38.2814 0 45.508 7.2 45.508 16C45.508 24.8 38.2792 32 29.4515 32C20.6238 32 13.4014 24.8725 13.4014 16ZM23.4718 16C23.4718 19.2725 26.1704 21.9637 29.4536 21.9637C32.7368 21.9637 35.363 19.2725 35.4366 16C35.4366 12.7275 32.7368 10.0363 29.4536 10.0363C26.1704 10.0363 23.4718 12.7275 23.4718 16Z" fill="white"/>
<path d="M13.4014 16L13.4014 27.9211H7.71389L0.417892 4.64854H13.4014L13.4014 16Z" fill="white"/>
</svg>
