<svg width="36" height="32" viewBox="0 0 36 32" fill="none" xmlns="http://www.w3.org/2000/svg">
<path fill-rule="evenodd" clip-rule="evenodd" d="M9.51038 27.8799C12.7408 30.5044 16.4728 32 20.4528 32C26.3715 32 31.7444 28.6826 35.7315 23.2797C34.0481 20.999 32.1183 19.0887 30.0025 17.6445L26.6055 19.3404C27.3356 20.4762 27.7608 21.8284 27.7608 23.2797C27.7608 27.3111 24.4895 30.5788 20.4528 30.5788C17.3164 30.5788 14.6423 28.6046 13.6056 25.8332L9.51038 27.8782V27.8799ZM17.9383 23.6713C18.0197 24.2011 18.2679 24.6938 18.6524 25.0784C19.1291 25.5549 19.7777 25.8226 20.4528 25.8208C21.8581 25.8208 22.9975 24.6831 22.9975 23.2797C22.9975 22.5904 22.7228 21.9648 22.2762 21.5059L17.9401 23.6713H17.9383Z" fill="white"/>
<path d="M10.4353 23.2228L35.1962 11.3199L29.7542 0L26.9437 10.0033L23.5662 2.97528L20.7539 12.9786L17.3764 5.95056L14.5641 15.9539L11.1866 8.92585L8.37435 18.9292L4.99681 11.9012L0.462112 28.018L10.4353 23.2246V23.2228Z" fill="white"/>
</svg>
